<svg aria-roledescription="stateDiagram" role="graphics-document document" viewBox="0 0 1048.974609375 1267.5" style="max-width: 1048.974609375px;" class="statediagram" xmlns="http://www.w3.org/2000/svg" width="1048.9713134765625" id="mermaid-to-excalidraw" height="1267.493408203125"><style>#mermaid-to-excalidraw{font-family:"trebuchet ms",verdana,arial,sans-serif;font-size:25px;fill:#333;}#mermaid-to-excalidraw .error-icon{fill:#552222;}#mermaid-to-excalidraw .error-text{fill:#552222;stroke:#552222;}#mermaid-to-excalidraw .edge-thickness-normal{stroke-width:2px;}#mermaid-to-excalidraw .edge-thickness-thick{stroke-width:3.5px;}#mermaid-to-excalidraw .edge-pattern-solid{stroke-dasharray:0;}#mermaid-to-excalidraw .edge-pattern-dashed{stroke-dasharray:3;}#mermaid-to-excalidraw .edge-pattern-dotted{stroke-dasharray:2;}#mermaid-to-excalidraw .marker{fill:#333333;stroke:#333333;}#mermaid-to-excalidraw .marker.cross{stroke:#333333;}#mermaid-to-excalidraw svg{font-family:"trebuchet ms",verdana,arial,sans-serif;font-size:25px;}#mermaid-to-excalidraw defs #statediagram-barbEnd{fill:#333333;stroke:#333333;}#mermaid-to-excalidraw g.stateGroup text{fill:#9370DB;stroke:none;font-size:10px;}#mermaid-to-excalidraw g.stateGroup text{fill:#333;stroke:none;font-size:10px;}#mermaid-to-excalidraw g.stateGroup .state-title{font-weight:bolder;fill:#131300;}#mermaid-to-excalidraw g.stateGroup rect{fill:#ECECFF;stroke:#9370DB;}#mermaid-to-excalidraw g.stateGroup line{stroke:#333333;stroke-width:1;}#mermaid-to-excalidraw .transition{stroke:#333333;stroke-width:1;fill:none;}#mermaid-to-excalidraw .stateGroup .composit{fill:white;border-bottom:1px;}#mermaid-to-excalidraw .stateGroup .alt-composit{fill:#e0e0e0;border-bottom:1px;}#mermaid-to-excalidraw .state-note{stroke:#aaaa33;fill:#fff5ad;}#mermaid-to-excalidraw .state-note text{fill:black;stroke:none;font-size:10px;}#mermaid-to-excalidraw .stateLabel .box{stroke:none;stroke-width:0;fill:#ECECFF;opacity:0.5;}#mermaid-to-excalidraw .edgeLabel .label rect{fill:#ECECFF;opacity:0.5;}#mermaid-to-excalidraw .edgeLabel .label text{fill:#333;}#mermaid-to-excalidraw .label div .edgeLabel{color:#333;}#mermaid-to-excalidraw .stateLabel text{fill:#131300;font-size:10px;font-weight:bold;}#mermaid-to-excalidraw .node circle.state-start{fill:#333333;stroke:#333333;}#mermaid-to-excalidraw .node .fork-join{fill:#333333;stroke:#333333;}#mermaid-to-excalidraw .node circle.state-end{fill:#9370DB;stroke:white;stroke-width:1.5;}#mermaid-to-excalidraw .end-state-inner{fill:white;stroke-width:1.5;}#mermaid-to-excalidraw .node rect{fill:#ECECFF;stroke:#9370DB;stroke-width:1px;}#mermaid-to-excalidraw .node polygon{fill:#ECECFF;stroke:#9370DB;stroke-width:1px;}#mermaid-to-excalidraw #statediagram-barbEnd{fill:#333333;}#mermaid-to-excalidraw .statediagram-cluster rect{fill:#ECECFF;stroke:#9370DB;stroke-width:1px;}#mermaid-to-excalidraw .cluster-label,#mermaid-to-excalidraw .nodeLabel{color:#131300;}#mermaid-to-excalidraw .statediagram-cluster rect.outer{rx:5px;ry:5px;}#mermaid-to-excalidraw .statediagram-state .divider{stroke:#9370DB;}#mermaid-to-excalidraw .statediagram-state .title-state{rx:5px;ry:5px;}#mermaid-to-excalidraw .statediagram-cluster.statediagram-cluster .inner{fill:white;}#mermaid-to-excalidraw .statediagram-cluster.statediagram-cluster-alt .inner{fill:#f0f0f0;}#mermaid-to-excalidraw .statediagram-cluster .inner{rx:0;ry:0;}#mermaid-to-excalidraw .statediagram-state rect.basic{rx:5px;ry:5px;}#mermaid-to-excalidraw .statediagram-state rect.divider{stroke-dasharray:10,10;fill:#f0f0f0;}#mermaid-to-excalidraw .note-edge{stroke-dasharray:5;}#mermaid-to-excalidraw .statediagram-note rect{fill:#fff5ad;stroke:#aaaa33;stroke-width:1px;rx:0;ry:0;}#mermaid-to-excalidraw .statediagram-note rect{fill:#fff5ad;stroke:#aaaa33;stroke-width:1px;rx:0;ry:0;}#mermaid-to-excalidraw .statediagram-note text{fill:black;}#mermaid-to-excalidraw .statediagram-note .nodeLabel{color:black;}#mermaid-to-excalidraw .statediagram .edgeLabel{color:red;}#mermaid-to-excalidraw #dependencyStart,#mermaid-to-excalidraw #dependencyEnd{fill:#333333;stroke:#333333;stroke-width:1;}#mermaid-to-excalidraw .statediagramTitleText{text-anchor:middle;font-size:18px;fill:#333;}#mermaid-to-excalidraw :root{--mermaid-font-family:"trebuchet ms",verdana,arial,sans-serif;}</style><g><defs><marker orient="auto" markerUnits="strokeWidth" markerHeight="14" markerWidth="20" refY="7" refX="19" id="mermaid-to-excalidraw_statediagram-barbEnd"><path d="M 19,7 L9,13 L14,7 L9,1 Z"></path></marker></defs><g class="root"><g class="clusters"><g id="HumanApproval----parent" class="note-cluster"><rect fill="none" height="382.5" width="426.20440673828125" y="624.5" x="8"></rect></g><g id="ToolExecution----parent" class="note-cluster"><rect fill="none" height="480" width="409.5003242492676" y="779.5" x="571.1031532287598"></rect></g></g><g class="edgePaths"><path marker-end="url(#mermaid-to-excalidraw_statediagram-barbEnd)" style="fill:none" class="edge-thickness-normal transition" id="edge28" d="M598.498,22L598.498,28.875C598.498,35.75,598.498,49.5,598.498,63.25C598.498,77,598.498,90.75,598.498,97.625L598.498,104.5"></path><path marker-end="url(#mermaid-to-excalidraw_statediagram-barbEnd)" style="fill:none" class="edge-thickness-normal transition" id="edge29" d="M598.498,152L598.498,158.875C598.498,165.75,598.498,179.5,598.498,193.25C598.498,207,598.498,220.75,598.498,227.625L598.498,234.5"></path><path marker-end="url(#mermaid-to-excalidraw_statediagram-barbEnd)" style="fill:none" class="edge-thickness-normal transition" id="edge30" d="M569.181,282L560.694,288.875C552.207,295.75,535.234,309.5,535.234,323.25C535.234,337,552.207,350.75,560.694,357.625L569.181,364.5"></path><path marker-end="url(#mermaid-to-excalidraw_statediagram-barbEnd)" style="fill:none" class="edge-thickness-normal transition" id="edge31" d="M586.008,412L582.393,418.875C578.777,425.75,571.546,439.5,567.93,453.25C564.315,467,564.315,480.75,564.315,487.625L564.315,494.5"></path><path marker-end="url(#mermaid-to-excalidraw_statediagram-barbEnd)" style="fill:none" class="edge-thickness-normal transition" id="edge32" d="M661.418,411.524L680.219,418.478C699.02,425.433,736.622,439.341,755.423,453.171C774.224,467,774.224,480.75,774.224,487.625L774.224,494.5"></path><path marker-end="url(#mermaid-to-excalidraw_statediagram-barbEnd)" style="fill:none" class="edge-thickness-normal transition" id="edge33" d="M627.816,364.5L636.303,357.625C644.789,350.75,661.763,337,661.763,323.25C661.763,309.5,644.789,295.75,636.303,288.875L627.816,282"></path><path marker-end="url(#mermaid-to-excalidraw_statediagram-barbEnd)" style="fill:none" class="edge-thickness-normal transition" id="edge34" d="M495.926,528.594L435.697,537.703C375.468,546.812,255.009,565.031,194.78,581.016C134.551,597,134.551,610.75,142.075,621.792C149.6,632.833,164.648,641.167,172.173,645.333L179.697,649.5"></path><path marker-end="url(#mermaid-to-excalidraw_statediagram-barbEnd)" style="fill:none" class="edge-thickness-normal transition" id="edge35" d="M601.196,542L611.872,548.875C622.549,555.75,643.901,569.5,654.577,583.25C665.254,597,665.254,610.75,665.254,625.75C665.254,640.75,665.254,657,665.254,675.958C665.254,694.917,665.254,716.583,665.254,734.292C665.254,752,665.254,765.75,672.606,787.625C679.958,809.5,694.663,839.5,702.015,854.5L709.368,869.5"></path><path marker-end="url(#mermaid-to-excalidraw_statediagram-barbEnd)" style="fill:none" class="edge-thickness-normal transition" id="edge36" d="M260.976,697L272.089,703.875C283.202,710.75,305.427,724.5,316.54,738.25C327.653,752,327.653,765.75,379.524,787.625C431.395,809.5,535.137,839.5,587.009,854.5L638.88,869.5"></path><path marker-end="url(#mermaid-to-excalidraw_statediagram-barbEnd)" style="fill:none" class="edge-thickness-normal transition" id="edge37" d="M274.791,649.5L283.949,645.333C293.108,641.167,311.426,632.833,320.584,621.792C329.743,610.75,329.743,597,329.743,579.292C329.743,561.583,329.743,539.917,329.743,518.25C329.743,496.583,329.743,474.917,364.049,455.786C398.355,436.656,466.967,420.062,501.273,411.765L535.578,403.468"></path><path marker-end="url(#mermaid-to-excalidraw_statediagram-barbEnd)" style="fill:none" class="edge-thickness-normal transition" id="edge38" d="M771.034,869.5L802.629,854.5C834.224,839.5,897.414,809.5,929.009,787.625C960.603,765.75,960.603,752,960.603,734.292C960.603,716.583,960.603,694.917,960.603,675.958C960.603,657,960.603,640.75,960.603,625.75C960.603,610.75,960.603,597,960.603,579.292C960.603,561.583,960.603,539.917,960.603,518.25C960.603,496.583,960.603,474.917,910.739,455.132C860.875,435.348,761.147,417.446,711.282,408.495L661.418,399.544"></path><path marker-end="url(#mermaid-to-excalidraw_statediagram-barbEnd)" style="fill:none" class="edge-thickness-normal transition" id="edge39" d="M697.886,538.713L670.195,546.136C642.505,553.559,587.124,568.404,559.434,582.702C531.743,597,531.743,610.75,531.743,624.583C531.743,638.417,531.743,652.333,531.743,659.292L531.743,666.25"></path><path style="fill:none" class="edge-thickness-normal transition note-edge" d="M222.044,697L221.887,703.875C221.73,710.75,221.416,724.5,221.259,738.25C221.102,752,221.102,765.75,221.102,776.792C221.102,787.833,221.102,796.167,221.102,800.333L221.102,804.5"></path><path style="fill:none" class="edge-thickness-normal transition note-edge" d="M721.009,917L721.009,932C721.009,947,721.009,977,721.009,996.167C721.009,1015.333,721.009,1023.667,721.009,1032C721.009,1040.333,721.009,1048.667,721.009,1052.833L721.009,1057"></path></g><g class="edgeLabels"><g transform="translate(598.4983406066895, 63.25)" class="edgeLabel"><g transform="translate(-74.072265625, -16.25)" class="label"><rect height="32.5" width="148.14453125" ry="0" rx="0"></rect><foreignObject height="32.5" width="148.14453125"><div style="display: inline-block; white-space: nowrap;" xmlns="http://www.w3.org/1999/xhtml"><span class="edgeLabel">User Message</span></div></foreignObject></g></g><g transform="translate(598.4983406066895, 193.25)" class="edgeLabel"><g transform="translate(-93.83789825439453, -16.25)" class="label"><rect height="32.5" width="187.67579650878906" ry="0" rx="0"></rect><foreignObject height="32.5" width="187.67579650878906"><div style="display: inline-block; white-space: nowrap;" xmlns="http://www.w3.org/1999/xhtml"><span class="edgeLabel">Start Assessment</span></div></foreignObject></g></g><g transform="translate(518.2607154846191, 323.25)" class="edgeLabel"><g transform="translate(-72.27864074707031, -16.25)" class="label"><rect height="32.5" width="144.55728149414062" ry="0" rx="0"></rect><foreignObject height="32.5" width="144.55728149414062"><div style="display: inline-block; white-space: nowrap;" xmlns="http://www.w3.org/1999/xhtml"><span class="edgeLabel">Plan Created</span></div></foreignObject></g></g><g transform="translate(564.3147602081299, 453.25)" class="edgeLabel"><g transform="translate(-68.92903137207031, -16.25)" class="label"><rect height="32.5" width="137.85806274414062" ry="0" rx="0"></rect><foreignObject height="32.5" width="137.85806274414062"><div style="display: inline-block; white-space: nowrap;" xmlns="http://www.w3.org/1999/xhtml"><span class="edgeLabel">Tool Needed</span></div></foreignObject></g></g><g transform="translate(774.2236042022705, 453.25)" class="edgeLabel"><g transform="translate(-120.97981262207031, -16.25)" class="label"><rect height="32.5" width="241.95962524414062" ry="0" rx="0"></rect><foreignObject height="32.5" width="241.95962524414062"><div style="display: inline-block; white-space: nowrap;" xmlns="http://www.w3.org/1999/xhtml"><span class="edgeLabel">Assessment Complete</span></div></foreignObject></g></g><g transform="translate(678.7359657287598, 323.25)" class="edgeLabel"><g transform="translate(-68.19660949707031, -16.25)" class="label"><rect height="32.5" width="136.39321899414062" ry="0" rx="0"></rect><foreignObject height="32.5" width="136.39321899414062"><div style="display: inline-block; white-space: nowrap;" xmlns="http://www.w3.org/1999/xhtml"><span class="edgeLabel">Update Plan</span></div></foreignObject></g></g><g transform="translate(134.5511016845703, 583.25)" class="edgeLabel"><g transform="translate(-124.50846099853516, -16.25)" class="label"><rect height="32.5" width="249.0169219970703" ry="0" rx="0"></rect><foreignObject height="32.5" width="249.0169219970703"><div style="display: inline-block; white-space: nowrap;" xmlns="http://www.w3.org/1999/xhtml"><span class="edgeLabel">Requires Confirmation</span></div></foreignObject></g></g><g transform="translate(665.253547668457, 673.25)" class="edgeLabel"><g transform="translate(-91.51041412353516, -16.25)" class="label"><rect height="32.5" width="183.0208282470703" ry="0" rx="0"></rect><foreignObject height="32.5" width="183.0208282470703"><div style="display: inline-block; white-space: nowrap;" xmlns="http://www.w3.org/1999/xhtml"><span class="edgeLabel">No Confirmation</span></div></foreignObject></g></g><g transform="translate(327.65330505371094, 738.25)" class="edgeLabel"><g transform="translate(-52.773441314697266, -16.25)" class="label"><rect height="32.5" width="105.54688262939453" ry="0" rx="0"></rect><foreignObject height="32.5" width="105.54688262939453"><div style="display: inline-block; white-space: nowrap;" xmlns="http://www.w3.org/1999/xhtml"><span class="edgeLabel">Approved</span></div></foreignObject></g></g><g transform="translate(329.74315452575684, 518.25)" class="edgeLabel"><g transform="translate(-49.91536331176758, -16.25)" class="label"><rect height="32.5" width="99.83072662353516" ry="0" rx="0"></rect><foreignObject height="32.5" width="99.83072662353516"><div style="display: inline-block; white-space: nowrap;" xmlns="http://www.w3.org/1999/xhtml"><span class="edgeLabel">Rejected</span></div></foreignObject></g></g><g transform="translate(960.6034774780273, 583.25)" class="edgeLabel"><g transform="translate(-80.37110137939453, -16.25)" class="label"><rect height="32.5" width="160.74220275878906" ry="0" rx="0"></rect><foreignObject height="32.5" width="160.74220275878906"><div style="display: inline-block; white-space: nowrap;" xmlns="http://www.w3.org/1999/xhtml"><span class="edgeLabel">Tool Complete</span></div></foreignObject></g></g><g transform="translate(531.7431335449219, 583.25)" class="edgeLabel"><g transform="translate(-66.40299224853516, -16.25)" class="label"><rect height="32.5" width="132.8059844970703" ry="0" rx="0"></rect><foreignObject height="32.5" width="132.8059844970703"><div style="display: inline-block; white-space: nowrap;" xmlns="http://www.w3.org/1999/xhtml"><span class="edgeLabel">Case Closed</span></div></foreignObject></g></g><g class="edgeLabel"><g transform="translate(0, 0)" class="label"><rect height="0" width="0" ry="0" rx="0"></rect><foreignObject height="0" width="0"><div style="display: inline-block; white-space: nowrap;" xmlns="http://www.w3.org/1999/xhtml"><span class="edgeLabel"></span></div></foreignObject></g></g><g class="edgeLabel"><g transform="translate(0, 0)" class="label"><rect height="0" width="0" ry="0" rx="0"></rect><foreignObject height="0" width="0"><div style="display: inline-block; white-space: nowrap;" xmlns="http://www.w3.org/1999/xhtml"><span class="edgeLabel"></span></div></foreignObject></g></g></g><g class="nodes"><g transform="translate(598.4983406066895, 15)" data-id="root_start" data-node="true" id="state-root_start-28" class="node default"><circle height="14" width="14" r="7" class="state-start"></circle></g><g transform="translate(598.4983406066895, 128.25)" data-id="Initial" data-node="true" id="state-Initial-29" class="node  statediagram-state undefined"><rect height="47.5" width="80.29947662353516" y="-23.75" x="-40.14973831176758" style="" class="basic label-container"></rect><g transform="translate(-32.64973831176758, -16.25)" style="" class="label"><rect></rect><foreignObject height="32.5" width="65.29947662353516"><div style="display: inline-block; white-space: nowrap;" xmlns="http://www.w3.org/1999/xhtml"><span class="nodeLabel">Initial</span></div></foreignObject></g></g><g transform="translate(598.4983406066895, 258.25)" data-id="Planning" data-node="true" id="state-Planning-33" class="node  statediagram-state undefined"><rect height="47.5" width="110.11067199707031" y="-23.75" x="-55.055335998535156" style="" class="basic label-container"></rect><g transform="translate(-47.555335998535156, -16.25)" style="" class="label"><rect></rect><foreignObject height="32.5" width="95.11067199707031"><div style="display: inline-block; white-space: nowrap;" xmlns="http://www.w3.org/1999/xhtml"><span class="nodeLabel">Planning</span></div></foreignObject></g></g><g transform="translate(598.4983406066895, 388.25)" data-id="Reasoning" data-node="true" id="state-Reasoning-38" class="node  statediagram-state undefined"><rect height="47.5" width="125.83984375" y="-23.75" x="-62.919921875" style="" class="basic label-container"></rect><g transform="translate(-55.419921875, -16.25)" style="" class="label"><rect></rect><foreignObject height="32.5" width="110.83984375"><div style="display: inline-block; white-space: nowrap;" xmlns="http://www.w3.org/1999/xhtml"><span class="nodeLabel">Reasoning</span></div></foreignObject></g></g><g transform="translate(564.3147602081299, 518.25)" data-id="ToolCalling" data-node="true" id="state-ToolCalling-35" class="node  statediagram-state undefined"><rect height="47.5" width="136.77734375" y="-23.75" x="-68.388671875" style="" class="basic label-container"></rect><g transform="translate(-60.888671875, -16.25)" style="" class="label"><rect></rect><foreignObject height="32.5" width="121.77734375"><div style="display: inline-block; white-space: nowrap;" xmlns="http://www.w3.org/1999/xhtml"><span class="nodeLabel">ToolCalling</span></div></foreignObject></g></g><g transform="translate(774.2236042022705, 518.25)" data-id="Synthesizing" data-node="true" id="state-Synthesizing-39" class="node  statediagram-state undefined"><rect height="47.5" width="152.67578125" y="-23.75" x="-76.337890625" style="" class="basic label-container"></rect><g transform="translate(-68.837890625, -16.25)" style="" class="label"><rect></rect><foreignObject height="32.5" width="137.67578125"><div style="display: inline-block; white-space: nowrap;" xmlns="http://www.w3.org/1999/xhtml"><span class="nodeLabel">Synthesizing</span></div></foreignObject></g></g><g transform="translate(222.58559226989746, 673.25)" data-id="HumanApproval" data-node="true" id="state-HumanApproval-40" class="node  statediagram-state undefined"><rect height="47.5" width="191.05470275878906" y="-23.75" x="-95.52735137939453" style="" class="basic label-container"></rect><g transform="translate(-88.02735137939453, -16.25)" style="" class="label"><rect></rect><foreignObject height="32.5" width="176.05470275878906"><div style="display: inline-block; white-space: nowrap;" xmlns="http://www.w3.org/1999/xhtml"><span class="nodeLabel">HumanApproval</span></div></foreignObject></g></g><g transform="translate(721.0087547302246, 893.25)" data-id="ToolExecution" data-node="true" id="state-ToolExecution-41" class="node  statediagram-state undefined"><rect height="47.5" width="170.3125" y="-23.75" x="-85.15625" style="" class="basic label-container"></rect><g transform="translate(-77.65625, -16.25)" style="" class="label"><rect></rect><foreignObject height="32.5" width="155.3125"><div style="display: inline-block; white-space: nowrap;" xmlns="http://www.w3.org/1999/xhtml"><span class="nodeLabel">ToolExecution</span></div></foreignObject></g></g><g transform="translate(531.7431335449219, 673.25)" data-id="root_end" data-node="true" id="state-root_end-39" class="node default"><circle height="14" width="14" r="7" class="state-start"></circle><circle height="10" width="10" r="5" class="state-end"></circle></g><g transform="translate(221.10220336914062, 893.25)" data-id="HumanApproval----note-40" data-node="true" id="state-HumanApproval----note-40" class="node statediagram-note"><rect height="177.5" width="356.20440673828125" y="-88.75" x="-178.10220336914062"></rect><g transform="translate(-170.60220336914062, -81.25)" style="" class="label"><rect></rect><foreignObject height="162.5" width="341.20440673828125"><div style="display: inline-block; white-space: nowrap;" xmlns="http://www.w3.org/1999/xhtml"><span class="nodeLabel">Tools requiring confirmation:<br>        - Blood pressure measurement<br>        - Medication administration<br>        - Document selection<br>        - Case submission</span></div></foreignObject></g></g><g transform="translate(721.0087547302246, 1145.75)" data-id="ToolExecution----note-41" data-node="true" id="state-ToolExecution----note-41" class="node statediagram-note"><rect height="177.5" width="226.60157775878906" y="-88.75" x="-113.30078887939453"></rect><g transform="translate(-105.80078887939453, -81.25)" style="" class="label"><rect></rect><foreignObject height="162.5" width="211.60157775878906"><div style="display: inline-block; white-space: nowrap;" xmlns="http://www.w3.org/1999/xhtml"><span class="nodeLabel">Automatic tools:<br>        - Case creation<br>        - Form filling<br>        - Status checks<br>        - Inventory queries</span></div></foreignObject></g></g></g></g></g></svg>