<?xml version="1.0" standalone="no"?>
<!DOCTYPE svg PUBLIC "-//W3C//DTD SVG 20010904//EN"
 "http://www.w3.org/TR/2001/REC-SVG-20010904/DTD/svg10.dtd">
<svg version="1.0" xmlns="http://www.w3.org/2000/svg"
 width="300.000000pt" height="300.000000pt" viewBox="0 0 300.000000 300.000000"
 preserveAspectRatio="xMidYMid meet">
<metadata>
Created by potrace 1.10, written by Peter Selinger 2001-2011
</metadata>
<g transform="translate(0.000000,300.000000) scale(0.100000,-0.100000)"
fill="#000000" stroke="none">
<path d="M1003 2680 c-39 -16 -57 -66 -61 -173 -5 -109 10 -244 38 -357 11
-41 17 -59 15 -40 -2 19 -7 65 -11 102 -4 37 -10 66 -13 64 -7 -5 -3 147 5
211 5 39 36 93 54 93 4 0 -1 -19 -12 -42 -14 -28 -21 -67 -23 -122 l-4 -81 8
75 c5 42 18 97 29 124 19 42 24 47 44 40 24 -7 86 -53 108 -79 21 -25 3 -29
-26 -6 -38 30 -87 28 -113 -5 -12 -15 -21 -34 -21 -43 0 -8 8 0 19 19 26 49
68 53 126 11 23 -17 45 -27 49 -24 3 3 6 1 6 -5 0 -22 -18 -21 -50 3 -33 24
-84 33 -94 17 -2 -4 12 -7 32 -5 39 3 35 -1 -10 -11 -16 -4 -28 -13 -28 -22 0
-11 4 -12 19 -4 15 7 29 5 60 -12 36 -19 46 -38 20 -38 -6 0 -8 4 -5 9 4 5
-10 5 -32 0 -39 -8 -72 -40 -72 -68 1 -10 6 -6 16 12 19 35 55 50 90 37 15 -6
23 -6 19 -1 -8 14 14 24 28 13 8 -6 18 -3 30 10 10 10 12 18 5 18 -6 0 -8 3
-5 6 16 16 -94 140 -148 168 -24 13 -26 16 -10 16 35 0 83 -38 131 -102 25
-35 50 -66 56 -69 5 -3 9 -10 8 -15 -1 -5 3 -9 10 -10 6 -2 7 -1 0 3 -5 2 -8
8 -5 13 8 13 -108 182 -154 223 -38 34 -80 58 -99 56 -4 0 -17 -4 -29 -9z m92
-30 c18 -11 50 -42 71 -68 59 -74 61 -80 13 -35 -52 49 -82 58 -138 43 -54
-14 -72 -50 -81 -160 l-7 -85 -2 111 c-2 154 21 214 82 214 16 0 44 -9 62 -20z
m82 -220 c20 -15 29 -17 39 -9 8 6 14 10 15 8 10 -51 2 -56 -41 -24 -19 14
-40 25 -48 25 -7 0 -10 5 -7 10 9 14 13 13 42 -10z"/>
<path d="M2265 2581 c-157 -25 -335 -100 -505 -211 -109 -72 -245 -174 -257
-193 -4 -6 15 5 42 26 240 182 448 298 619 343 85 22 115 25 205 22 86 -3 115
-8 151 -27 120 -62 180 -148 180 -256 0 -196 -126 -391 -440 -680 -47 -43 -69
-67 -50 -54 19 13 101 89 181 169 226 226 308 365 317 537 4 80 1 98 -18 137
-29 61 -117 140 -183 165 -63 23 -171 33 -242 22z"/>
<path d="M2145 2466 c-97 -32 -326 -151 -347 -181 -4 -5 -8 -7 -8 -2 0 9 -45
-14 -75 -37 -18 -15 -18 -16 -1 -9 14 4 17 2 14 -8 -3 -8 -11 -13 -17 -11 -6
1 -11 -3 -11 -9 0 -5 -5 -7 -10 -4 -6 4 -7 11 -3 18 3 6 -8 1 -25 -12 -29 -20
-46 -41 -23 -26 15 9 20 -9 8 -26 -7 -8 -24 -24 -39 -33 -15 -10 -25 -23 -21
-29 4 -6 0 -8 -9 -4 -9 3 -25 -1 -37 -9 -12 -9 -29 -14 -39 -11 -12 2 -7 9 21
22 20 10 37 23 37 27 0 5 -8 4 -19 -1 -10 -6 -22 -7 -26 -3 -5 4 -5 2 -2 -4 3
-6 -7 -18 -23 -27 -27 -16 -28 -16 -25 0 2 10 4 29 4 41 1 22 4 23 44 16 23
-4 47 -7 54 -7 7 0 10 -5 6 -10 -4 -7 22 7 56 29 1 2 0 7 -3 13 -4 6 -17 4
-34 -6 -21 -12 -40 -14 -75 -9 -46 7 -47 8 -47 45 0 47 -43 134 -77 156 -30
20 -123 16 -150 -7 -9 -7 -19 -12 -22 -12 -3 1 -22 -7 -41 -18 -49 -29 -75
-89 -106 -245 -2 -13 0 -23 6 -23 5 0 10 6 10 13 0 8 4 7 10 -3 9 -14 14 24
13 102 0 10 2 16 5 14 2 -3 15 8 29 25 15 18 34 29 50 29 23 0 24 -3 17 -27
-5 -16 -9 -58 -9 -95 l1 -68 -81 0 -80 0 -3 129 c-3 140 7 185 50 221 20 17
21 19 5 20 -12 0 -16 -4 -11 -12 6 -10 4 -10 -8 0 -18 15 -25 8 -38 -36 -5
-17 -9 -20 -9 -9 -1 10 6 32 15 48 8 17 13 33 11 35 -11 11 -39 -70 -33 -97 3
-15 1 -31 -5 -34 -5 -4 -9 -12 -8 -18 1 -7 -1 -20 -6 -30 -4 -10 -1 -62 7
-116 14 -90 19 -101 52 -135 32 -33 36 -35 36 -16 0 32 17 15 24 -24 9 -48 36
-69 78 -61 56 11 61 17 43 58 -8 20 -15 39 -15 42 0 9 69 5 75 -5 3 -5 13 -2
24 8 25 24 12 33 -52 35 l-55 1 -6 46 c-5 43 5 114 19 128 4 4 28 -16 53 -43
26 -27 50 -49 53 -48 3 1 5 -17 3 -41 l-4 -44 39 -4 c49 -4 101 8 101 25 0 8
3 8 9 -2 6 -10 1 -21 -15 -38 -33 -33 -30 -43 11 -43 24 0 35 5 35 14 0 8 6
17 13 19 9 4 9 6 0 6 -7 1 -17 11 -24 23 -9 18 -9 20 4 15 9 -3 21 1 27 9 7 8
20 14 29 14 13 -1 13 -3 -3 -15 -18 -14 -17 -15 25 -15 25 0 51 6 58 13 11 10
12 9 6 -2 -6 -11 -2 -13 21 -9 16 3 38 9 48 13 14 6 17 5 12 -4 -6 -8 2 -7 22
3 35 18 52 20 52 7 0 -5 -10 -11 -22 -14 -12 -4 -20 -8 -18 -11 7 -6 147 28
157 38 4 5 -3 6 -17 2 -66 -18 -90 -19 -96 -3 -5 15 -9 15 -35 1 -16 -8 -29
-11 -29 -6 0 5 17 17 39 26 35 16 41 16 68 3 26 -14 35 -14 74 -1 l44 14 -55
-5 c-68 -6 -93 6 -47 23 29 10 30 10 13 -3 -26 -20 -13 -19 26 1 52 27 125 45
192 47 36 1 58 5 51 10 -8 4 -53 2 -102 -4 -48 -6 -97 -11 -108 -10 -16 0 -17
-2 -5 -10 12 -7 9 -9 -10 -6 -14 1 -30 6 -37 10 -6 4 -24 2 -40 -5 -15 -6 -32
-10 -37 -9 -5 1 -3 -6 5 -15 9 -12 10 -15 1 -10 -7 4 -37 0 -67 -9 -54 -15
-81 -13 -70 6 3 5 16 8 28 8 12 -1 64 15 116 35 95 36 141 47 86 20 l-30 -14
30 6 c17 4 38 7 47 8 9 0 15 3 13 7 -3 3 18 4 45 1 32 -3 55 0 65 8 8 7 34 13
56 13 26 0 36 3 27 8 -21 14 -62 10 -97 -7 -35 -18 -119 -11 -90 7 19 12 32
11 24 -1 -9 -14 7 -12 30 4 31 21 92 26 128 11 20 -8 51 -11 84 -8 51 6 52 5
58 -23 4 -16 11 -39 16 -52 5 -13 5 -21 1 -18 -5 3 -7 -9 -5 -27 3 -30 3 -31
-7 -8 -6 14 -12 34 -15 45 -2 12 -4 23 -5 26 -1 3 -3 11 -4 19 0 8 -7 15 -14
17 -7 1 -8 0 -2 -3 5 -2 10 -9 10 -14 0 -6 -5 -7 -11 -3 -6 3 -14 2 -18 -4 -4
-7 -12 -6 -24 3 -16 11 -16 13 -2 19 9 3 13 2 10 -4 -3 -6 -1 -10 4 -10 6 0
11 4 11 9 0 16 -20 23 -33 13 -7 -5 -21 -12 -32 -15 -18 -4 -18 -5 3 -6 12 0
22 -5 22 -11 0 -5 6 -10 14 -10 14 0 31 -29 22 -37 -2 -3 -17 4 -32 14 -16 10
-30 17 -31 15 -2 -2 -16 -1 -31 2 -15 3 -49 2 -77 -3 l-50 -9 72 -1 c67 -1 73
-3 93 -30 11 -16 16 -32 11 -35 -5 -3 -11 1 -15 9 -3 8 -12 15 -20 15 -8 0
-18 5 -22 12 -5 8 -2 9 9 5 10 -4 17 -2 17 4 0 6 -9 9 -20 6 -10 -3 -47 -2
-82 3 -35 4 -74 3 -88 -2 -21 -7 -20 -7 8 -3 22 3 31 1 26 -6 -4 -8 9 -10 44
-8 27 2 48 1 45 -4 -2 -4 2 -10 11 -13 14 -5 52 -54 42 -54 -3 0 -12 8 -22 18
-14 13 -37 17 -108 18 l-91 2 85 -7 c54 -4 94 -13 111 -24 28 -19 49 -56 49
-87 0 -10 4 -21 9 -24 5 -4 5 10 0 31 -8 36 -4 60 5 32 12 -37 16 -41 12 -14
-3 27 10 84 14 60 6 -30 4 -195 -2 -195 -4 0 -6 -8 -5 -18 2 -28 -24 -83 -36
-75 -6 3 -7 1 -3 -5 9 -15 -31 -55 -47 -45 -9 5 -9 3 0 -8 9 -11 4 -21 -23
-49 -34 -34 -48 -64 -19 -40 8 7 15 9 15 4 1 -5 9 0 18 12 10 11 25 21 35 21
19 0 23 -12 7 -22 -6 -4 -7 -11 -4 -17 4 -7 2 -8 -4 -4 -6 4 -8 14 -5 24 5 13
1 12 -19 -6 -13 -12 -28 -19 -32 -15 -4 5 -6 0 -4 -11 2 -12 -3 -20 -14 -21
-11 -2 -15 2 -11 13 4 10 2 13 -5 8 -20 -12 -13 4 22 50 20 26 33 53 31 65 -3
16 1 18 22 15 l26 -5 -23 24 c-13 14 -26 25 -28 25 -3 0 -2 -3 1 -7 4 -3 0
-17 -8 -30 -9 -13 -14 -27 -11 -31 5 -9 -19 -44 -30 -43 -5 1 -9 -5 -9 -12 0
-6 -5 -20 -11 -30 -9 -16 -13 -16 -44 -4 l-33 15 2 120 2 121 -33 -5 c-18 -3
-56 -2 -83 3 -36 7 -57 5 -75 -4 -16 -8 -28 -9 -34 -3 -6 6 -20 10 -33 10 -13
0 -32 9 -43 20 -21 21 -40 19 -40 -5 0 -9 7 -11 22 -7 17 4 20 2 15 -12 -4
-10 -7 -20 -7 -22 0 -2 -15 -5 -32 -5 -24 -1 -27 -3 -10 -6 14 -3 20 -9 16
-16 -4 -7 -4 -9 1 -5 4 4 15 2 23 -5 13 -10 15 -9 10 4 -5 13 1 18 28 21 41 5
59 -4 51 -26 -3 -9 0 -19 8 -24 8 -4 24 -26 35 -47 19 -37 21 -38 26 -18 4 13
10 20 15 17 11 -6 10 12 -2 46 -9 25 -9 25 -5 -2 2 -16 0 -28 -5 -28 -11 0
-16 10 -24 50 l-6 35 70 -3 71 -4 0 -89 c0 -90 -7 -108 -25 -66 -12 28 -72 37
-81 12 -6 -16 13 -75 25 -75 3 0 12 9 19 21 13 20 15 20 32 4 14 -13 19 -13
23 -3 3 7 4 3 4 -10 -1 -13 -6 -21 -13 -18 -19 7 -36 -20 -29 -46 5 -21 4 -21
-16 5 -11 15 -39 37 -60 48 -43 21 -43 21 -30 65 7 24 4 35 -11 54 -16 20 -23
22 -38 12 -15 -9 -21 -7 -34 13 -9 14 -21 25 -27 25 -6 0 -25 10 -42 22 -18
13 -34 22 -37 21 -3 0 -4 3 -3 8 5 15 -131 10 -177 -6 -53 -19 -63 -19 -30 0
23 13 20 14 -54 15 -65 0 -76 2 -67 14 9 11 0 13 -52 15 l-62 2 -72 72 c-56
55 -72 76 -67 92 4 16 3 17 -5 5 -6 -8 -11 -49 -11 -90 l0 -75 -58 -1 c-102
-1 -144 -43 -186 -182 -20 -69 -8 -100 63 -164 48 -43 55 -72 13 -49 -16 8
-30 -2 -88 -62 -38 -39 -59 -63 -46 -53 12 11 22 16 22 11 0 -4 7 -2 15 5 8 7
13 16 10 20 -2 3 14 24 35 45 43 42 55 38 18 -4 l-23 -26 23 19 c22 19 22 19
19 -2 -2 -12 -7 -25 -12 -29 -4 -5 -5 -1 -1 7 4 8 -2 3 -14 -13 -12 -15 -25
-25 -30 -22 -4 3 -20 -8 -33 -25 -24 -28 -46 -42 -33 -21 9 14 -19 7 -39 -9
-27 -23 -135 -179 -176 -255 -72 -134 -83 -222 -39 -304 10 -20 21 -48 24 -64
4 -15 19 -41 35 -59 27 -30 32 -32 139 -41 159 -15 189 -5 472 147 103 56 146
84 105 70 -12 -4 -5 7 19 30 39 35 56 44 56 28 0 -4 -6 -14 -12 -22 -7 -7 2
-3 20 9 17 12 32 25 32 28 0 4 -3 3 -7 0 -3 -4 -12 -2 -19 4 -10 8 -24 3 -56
-19 -24 -16 -70 -43 -103 -61 -33 -17 -54 -31 -47 -31 7 0 24 7 38 16 13 9 27
14 30 11 8 -8 -118 -82 -134 -79 -8 2 -11 -1 -8 -6 12 -20 -138 -71 -214 -72
-99 -2 -118 0 -146 11 l-29 12 32 10 c24 7 48 6 92 -5 55 -14 65 -14 123 2 34
9 56 19 48 22 -9 3 1 10 25 18 54 17 128 50 123 55 -2 3 -33 -7 -68 -22 -78
-31 -123 -37 -175 -24 l-40 10 52 -3 c39 -3 64 2 100 20 53 26 67 29 58 14 -3
-6 1 -7 10 -3 11 4 13 8 6 13 -7 3 11 17 39 30 85 40 49 32 -46 -10 -49 -22
-97 -40 -106 -40 -9 0 -19 -4 -23 -10 -3 -6 -15 -5 -30 2 -19 9 -31 8 -53 -2
-15 -7 -36 -13 -47 -12 -51 4 33 -19 94 -26 l66 -7 -47 -14 c-30 -8 -64 -11
-94 -6 -53 8 -51 20 4 18 35 -1 36 -1 7 6 -16 4 -46 3 -65 -1 -57 -13 -170
-21 -172 -11 -6 32 -4 63 4 61 5 -2 8 -7 6 -11 -4 -10 43 -41 67 -44 16 -2 14
1 -7 12 -16 9 -29 27 -33 46 -9 39 -5 41 28 24 15 -8 27 -12 27 -9 0 2 17 -4
39 -15 42 -22 61 -20 136 14 62 28 180 58 203 51 9 -3 28 1 42 9 29 17 19 20
-12 4 -11 -6 -22 -8 -25 -5 -4 3 10 13 30 21 42 17 50 19 43 6 -4 -5 17 2 46
16 29 14 64 29 78 34 24 9 24 8 6 -6 -11 -8 -24 -15 -29 -15 -4 0 -5 -4 -2
-10 4 -6 -1 -7 -11 -3 -12 4 -15 3 -10 -5 5 -8 2 -10 -9 -6 -9 4 -15 2 -13 -4
2 -6 -6 -18 -17 -26 -18 -15 -17 -15 14 -2 18 7 49 26 69 42 19 16 38 28 43
26 5 -1 8 3 7 9 -2 6 3 14 11 17 8 3 11 0 7 -7 -4 -6 -3 -11 3 -11 16 0 22 18
9 23 -15 5 44 37 75 41 12 1 30 6 40 10 11 5 27 2 43 -8 59 -39 36 -82 -33
-64 -24 6 -43 15 -43 20 0 5 4 7 9 4 4 -3 19 3 31 14 19 16 20 20 7 20 -10 0
-17 -4 -17 -10 0 -5 -7 -10 -15 -10 -7 0 -18 -7 -23 -16 -5 -9 -13 -16 -18
-16 -5 0 -15 -3 -22 -6 -11 -4 -11 -6 -1 -12 7 -5 20 -3 29 2 11 7 30 8 55 2
l38 -9 -79 -61 c-208 -161 -450 -296 -599 -334 -49 -13 -115 -21 -171 -22 -77
-1 -98 3 -146 25 -69 31 -144 98 -157 140 -34 110 -21 207 44 342 58 120 151
241 315 410 77 79 111 119 78 91 -134 -112 -339 -363 -402 -491 -125 -252 -65
-448 158 -517 106 -32 237 -15 410 54 124 49 357 195 505 315 52 42 54 43 80
28 l26 -16 -23 20 -22 19 30 22 c17 12 30 18 29 13 -4 -21 2 -34 13 -27 7 4 8
3 4 -4 -14 -23 80 -182 108 -182 5 0 -2 12 -15 27 -37 41 -61 82 -54 94 4 5 1
18 -7 27 -12 15 -11 16 5 3 14 -11 17 -11 17 1 0 8 -5 19 -12 26 -6 6 -9 15
-5 18 3 4 12 -5 18 -20 7 -14 16 -26 21 -26 5 0 6 -5 3 -10 -4 -6 -11 -7 -17
-4 -8 5 -9 1 -5 -10 5 -11 3 -15 -4 -10 -7 4 -10 1 -7 -7 3 -8 11 -14 19 -14
8 0 13 -8 11 -20 -3 -15 -1 -17 8 -9 9 9 22 6 52 -11 23 -13 47 -21 54 -18 7
2 25 -4 40 -14 l28 -18 -44 -5 c-35 -5 -50 -1 -67 14 -13 11 -24 16 -24 13 -5
-24 -4 -33 3 -38 4 -3 9 -17 10 -31 2 -19 6 -24 22 -20 14 4 17 2 11 -8 -5 -8
-4 -11 2 -7 14 9 37 -19 28 -33 -5 -8 -13 -6 -25 5 -11 10 -20 12 -24 6 -4 -5
-2 -12 4 -16 5 -3 10 -3 10 1 0 4 24 -16 54 -45 51 -48 68 -56 106 -52 21 3
60 48 60 69 -1 10 -10 1 -21 -21 -17 -32 -24 -37 -54 -37 -38 0 -102 47 -102
75 0 8 1 15 2 15 1 0 20 -9 43 -20 32 -16 47 -18 61 -10 29 15 39 12 17 -5
-11 -8 -29 -16 -40 -16 -17 -1 -17 -2 -4 -6 52 -13 105 77 92 156 l-7 46 -9
-35 c-5 -19 -9 -43 -9 -53 0 -9 -4 -15 -9 -12 -6 3 -7 -1 -4 -10 4 -9 3 -15
-2 -14 -19 3 -34 -2 -34 -11 0 -18 34 -6 47 15 7 11 12 15 13 9 0 -5 -7 -19
-15 -30 -8 -10 -15 -15 -15 -11 0 4 -9 3 -19 -3 -26 -14 -77 9 -120 54 -19 19
-39 32 -45 29 -6 -3 -7 -2 -3 2 4 5 13 10 20 11 87 17 112 25 142 48 19 15 35
32 36 39 0 7 4 3 9 -8 7 -16 9 -17 9 -3 1 23 -19 34 -31 17 -7 -10 -8 -5 -6
18 5 40 -7 34 -16 -7 -3 -18 -10 -29 -16 -25 -5 3 -10 1 -10 -4 0 -6 -7 -11
-15 -11 -12 0 -11 5 6 23 31 33 37 55 37 141 1 79 16 123 26 75 7 -31 15 -125
16 -167 0 -18 4 -31 9 -28 5 3 12 -14 15 -39 12 -78 23 -49 19 51 -6 130 13
115 23 -19 5 -68 10 -95 15 -82 9 22 3 -74 -12 -169 -9 -63 -31 -106 -54 -106
-12 0 -11 6 5 32 24 41 34 104 21 143 -10 27 -10 26 -5 -12 6 -45 -17 -133
-39 -151 -7 -5 -23 -13 -37 -16 -14 -4 -20 -4 -15 1 6 5 -19 37 -65 83 -41 41
-64 60 -52 43 12 -17 42 -52 67 -77 24 -25 39 -46 33 -46 -13 0 -132 120 -120
120 4 0 -2 7 -12 15 -11 8 -17 15 -14 15 7 0 -113 215 -136 245 -27 35 114
-237 161 -309 54 -84 134 -170 173 -186 47 -20 85 1 107 59 14 36 18 73 17
171 -1 126 -27 317 -44 334 -6 6 -10 36 -10 68 0 43 4 58 14 58 11 0 14 15 13
66 l-2 65 52 4 c83 6 120 29 152 94 66 131 65 175 -6 245 -25 25 -49 46 -53
46 -3 0 -15 -7 -26 -16 -18 -15 -18 -15 0 -6 20 10 38 -3 76 -53 13 -17 11
-16 -14 3 -28 22 -46 21 -46 -1 0 -7 4 -6 10 3 8 12 10 12 10 1 0 -8 3 -11 7
-8 11 12 43 -25 43 -49 0 -32 -18 -39 -39 -15 -10 12 -23 21 -29 21 -6 0 -14
4 -17 10 -4 6 1 7 12 3 16 -6 16 -5 4 10 -12 15 -15 15 -25 2 -7 -10 -16 -12
-25 -6 -12 8 -12 12 -2 25 7 8 11 23 9 32 -3 16 -4 16 -18 -1 -9 -11 -10 -16
-2 -11 7 4 12 2 12 -4 0 -7 -6 -10 -14 -7 -7 3 -20 0 -27 -6 -9 -9 -9 -7 1 8
31 44 63 73 75 69 7 -3 16 4 20 16 5 17 9 19 21 9 12 -10 15 -10 12 1 -2 8 4
14 12 15 8 0 15 7 15 15 0 8 5 15 12 15 6 0 15 4 20 9 5 5 3 6 -4 2 -7 -4 -13
-3 -13 2 0 11 29 37 31 28 1 -3 2 -10 3 -15 0 -5 4 -13 9 -17 8 -9 -32 -56
-43 -49 -4 3 -15 -4 -25 -15 -11 -12 -13 -20 -6 -20 6 0 14 7 17 15 4 8 10 13
14 10 10 -6 171 162 232 241 153 200 208 348 162 436 -9 17 -22 52 -30 78 -17
59 -68 107 -121 115 -21 3 -54 10 -74 15 -58 16 -129 11 -204 -14z m185 10 c0
-9 -108 -34 -170 -39 -36 -3 -74 -9 -85 -13 -11 -4 -17 -4 -13 1 24 26 268 72
268 51z m60 -26 c10 -5 28 -24 40 -41 l22 -30 -38 7 c-22 4 -49 15 -62 25 -13
10 -37 21 -55 25 -32 7 -32 7 -7 15 37 11 79 10 100 -1z m70 -10 c52 -27 77
-76 79 -160 l2 -65 -30 35 c-17 19 -30 45 -31 57 0 12 -3 30 -7 40 -7 17 -6
17 21 0 15 -10 30 -16 33 -13 3 3 -11 13 -31 22 -20 10 -36 21 -36 26 0 4 -14
23 -31 43 -35 40 -26 44 31 15z m-121 -32 c16 -11 19 -17 9 -21 -8 -3 -5 -6 7
-7 94 -7 117 -21 113 -73 -3 -37 -11 -41 -27 -15 -12 19 -11 20 6 14 14 -5 13
-2 -4 11 -12 10 -30 27 -38 38 -9 11 -14 14 -10 8 7 -15 4 -16 -28 -4 -14 6
-29 6 -38 0 -10 -6 -6 -9 14 -9 34 0 63 -14 70 -34 4 -10 0 -12 -14 -9 -10 3
-19 9 -19 14 0 5 -14 9 -30 9 -18 0 -33 6 -36 15 -8 19 -21 19 -21 0 0 -8 9
-17 19 -21 10 -3 18 -9 18 -14 0 -4 8 -6 18 -3 27 7 72 -14 73 -34 0 -16 1
-16 8 2 6 16 11 11 24 -28 16 -48 13 -50 -25 -18 -10 9 -21 15 -24 13 -3 -2
-13 7 -22 18 -9 12 -27 22 -39 23 -13 1 -23 4 -23 7 0 3 -13 13 -28 22 -32 19
-47 17 -185 -31 -48 -17 -97 -31 -107 -31 -11 0 -37 -9 -58 -20 -22 -11 -52
-22 -68 -25 -35 -5 -136 -46 -146 -60 -5 -6 -8 -5 -8 3 0 7 11 17 25 24 13 6
22 16 18 21 -4 6 0 8 10 4 9 -3 58 15 118 44 126 63 171 79 219 79 65 0 133
12 118 21 -19 13 -58 11 -58 -2 0 -8 -17 -10 -52 -6 -39 3 -63 0 -88 -13 -50
-25 -84 -35 -76 -21 5 7 1 8 -10 4 -13 -5 -14 -8 -5 -11 7 -2 -19 -22 -59 -43
-75 -41 -85 -45 -76 -30 12 18 -27 4 -59 -22 -34 -27 -72 -37 -59 -15 5 8 2 9
-9 5 -9 -3 -19 -2 -22 2 -7 13 21 21 32 10 6 -6 31 3 68 25 69 42 69 42 45 42
-10 0 -16 -4 -14 -8 3 -4 2 -8 -3 -9 -4 0 -18 -2 -30 -5 -13 -2 -23 -2 -23 1
0 6 38 26 60 30 10 2 38 16 61 31 24 16 47 27 52 26 4 -1 7 2 7 8 0 5 7 6 17
3 10 -4 14 -2 10 4 -6 10 78 53 103 53 6 0 8 4 5 10 -3 5 0 8 7 5 7 -2 29 -1
48 4 59 14 213 7 239 -11z m-964 -62 c48 -21 77 -81 83 -176 l5 -75 -25 27
c-14 14 -25 37 -24 50 2 20 -10 41 -54 94 -5 7 -6 16 -2 20 4 5 0 3 -9 -4 -9
-6 -20 -8 -24 -4 -5 4 -4 0 0 -8 5 -8 -10 5 -33 29 -45 47 -50 56 -28 48 12
-5 26 -2 74 12 1 1 18 -5 37 -13z m-150 -46 c5 -8 11 -7 21 1 12 10 13 8 5
-13 -12 -33 -3 -43 21 -21 22 20 30 13 32 -25 1 -26 36 -78 93 -142 13 -14 23
-28 23 -32 0 -16 -20 -7 -30 12 -6 11 -16 17 -22 14 -7 -4 -8 -3 -4 4 9 15
-12 54 -25 47 -5 -4 -9 1 -9 9 0 8 -20 29 -45 47 -24 17 -42 35 -40 40 19 30
-79 8 -106 -24 -10 -12 -18 -17 -19 -12 0 20 32 56 63 69 21 10 26 15 14 15
-10 1 -15 6 -12 11 8 13 32 13 40 0z m1035 -11 c0 -6 6 -9 13 -6 20 7 47 -12
47 -33 0 -11 5 -20 11 -20 5 0 7 6 4 13 -4 6 0 4 9 -7 8 -10 18 -39 22 -65 6
-37 9 -42 15 -26 6 13 8 -8 6 -55 -3 -66 -9 -87 -50 -170 -25 -52 -39 -86 -31
-75 9 11 31 51 50 90 19 38 34 64 34 57 0 -26 -50 -134 -79 -171 -17 -22 -31
-43 -31 -49 0 -5 -7 -15 -15 -22 -9 -7 -14 -19 -11 -27 3 -8 2 -12 -3 -9 -5 3
-15 -2 -22 -12 -12 -15 -12 -16 2 -4 13 10 18 10 28 -1 8 -11 6 -18 -9 -32
-16 -15 -28 -16 -17 -2 1 2 -4 11 -11 20 -8 9 -11 21 -8 26 4 5 -1 14 -10 19
-20 11 -15 44 8 48 20 2 32 -22 16 -32 -7 -4 -8 -3 -4 4 4 7 3 12 -3 12 -17 0
-21 -17 -7 -29 15 -13 43 13 41 39 0 8 4 18 10 22 5 4 10 11 10 15 0 4 15 42
32 83 36 87 75 220 64 220 -4 0 -14 -23 -21 -51 -8 -27 -18 -52 -22 -55 -4 -3
-8 -16 -8 -30 0 -13 -18 -61 -40 -105 -23 -44 -37 -85 -33 -92 4 -7 0 -7 -10
2 -9 7 -17 10 -17 6 0 -5 -2 -6 -5 -3 -3 3 0 18 6 34 6 16 13 53 14 82 2 29 8
59 13 65 6 7 13 34 18 62 6 40 9 46 16 30 8 -20 8 -20 4 0 -2 11 -11 41 -19
68 -22 69 -4 60 31 -17 3 -5 -2 -5 -9 -1 -8 5 -6 -1 4 -12 20 -23 19 -70 -1
-66 -6 2 -12 -6 -12 -18 0 -11 5 -17 10 -14 15 10 12 -12 -9 -53 -10 -20 -22
-52 -26 -69 -3 -18 -11 -35 -16 -38 -5 -4 -9 -14 -9 -23 1 -37 72 124 74 165
0 24 4 43 7 43 8 0 20 53 21 88 0 12 4 22 8 22 4 0 5 11 2 25 -2 14 -8 25 -13
25 -5 0 -9 9 -9 21 0 45 -16 56 -82 58 -35 1 -72 5 -83 8 -18 6 -17 8 10 19
37 16 95 18 95 3z m317 -115 c-3 -29 -15 -72 -26 -95 -12 -24 -18 -35 -14 -24
4 11 8 52 9 90 1 39 2 88 4 110 l2 40 15 -35 c10 -23 13 -52 10 -86z m-1187
39 c11 -13 15 -23 9 -23 -8 0 -8 -4 0 -14 9 -11 8 -15 -4 -20 -9 -3 -14 -2
-11 3 3 5 -7 25 -24 45 -17 22 -26 44 -23 53 5 14 8 13 20 -3 8 -10 23 -29 33
-41z m1132 -4 c15 -27 18 -46 13 -89 -3 -30 -7 -65 -8 -77 -1 -12 -4 -19 -6
-17 -5 5 -66 -98 -64 -107 3 -9 -71 -102 -85 -107 -11 -3 -12 0 -2 17 6 12 14
20 18 17 4 -2 19 13 34 34 23 32 25 39 12 44 -8 3 -12 2 -9 -4 3 -6 1 -10 -6
-10 -7 0 -10 -3 -6 -6 3 -3 -8 -21 -25 -40 -49 -54 -59 -71 -43 -71 8 0 11 5
8 10 -4 6 -1 7 6 2 9 -5 -1 -22 -35 -56 -81 -82 -84 -57 -7 59 54 82 92 185
95 257 0 25 5 42 10 39 5 -3 6 7 2 23 -12 49 -23 73 -34 73 -6 0 -8 5 -5 10 4
6 11 8 16 5 5 -4 6 2 2 12 -4 12 4 9 25 -11 22 -20 32 -39 33 -60 0 -26 2 -28
9 -11 6 17 9 15 15 -16 5 -26 2 -46 -9 -67 -19 -37 -20 -58 -4 -68 7 -4 8 -3
4 5 -5 7 -5 24 -1 39 5 20 8 23 16 11 6 -10 9 -8 9 12 0 15 7 43 15 62 8 20
15 42 14 49 0 7 -6 -3 -14 -22 l-13 -35 -11 28 c-6 16 -11 44 -11 63 0 19 -4
34 -10 34 -5 0 -10 7 -10 16 0 15 2 15 22 2 12 -8 30 -30 40 -49z m-819 -49
c17 0 -85 -60 -103 -60 -8 0 3 11 25 25 22 13 36 25 32 25 -5 0 -5 5 -2 11 4
6 14 8 22 5 8 -3 20 -6 26 -6z m522 -30 c4 -6 11 -8 16 -4 5 3 9 2 8 -3 -1 -4
1 -19 5 -33 3 -14 2 -45 -3 -70 -9 -44 -9 -44 -10 -10 -1 19 -8 46 -16 60
l-13 25 -7 -27 c-4 -16 -11 -26 -15 -23 -5 3 -10 2 -13 -2 -2 -5 -2 -2 0 6 2
8 -11 29 -29 48 -39 40 -22 44 20 4 24 -21 32 -25 36 -14 3 8 10 11 16 8 16
-10 12 6 -7 27 -9 10 -11 18 -5 18 6 0 14 -5 17 -10z m-539 -22 c5 -8 2 -9 -9
-5 -10 4 -16 2 -14 -6 1 -7 -5 -12 -13 -12 -8 0 -21 -7 -28 -15 -8 -8 -11 -9
-7 -2 3 6 0 12 -7 12 -12 1 49 39 64 40 4 0 10 -5 14 -12z m66 -8 c-18 -11
-37 -18 -42 -15 -4 3 -10 -2 -14 -10 -3 -8 -11 -15 -18 -14 -10 0 -10 2 0 6 6
2 10 9 6 14 -5 9 9 13 34 10 6 -1 12 2 12 8 0 5 8 12 18 14 35 9 36 6 4 -13z
m-532 -120 c0 -38 -2 -44 -17 -46 -9 -2 -10 3 -3 17 6 10 9 19 8 20 -25 6 -39
5 -45 -3 -3 -6 -1 -8 5 -4 6 3 13 2 16 -3 3 -5 -3 -11 -13 -14 -18 -4 -23 2
-49 56 -2 4 20 7 47 7 50 0 51 -1 51 -30z m-161 -75 c1 -15 -1 -17 -8 -6 -7
11 -9 11 -14 0 -3 -8 -6 6 -6 31 0 44 0 44 14 20 8 -14 14 -34 14 -45z m78
-51 c-10 -10 -37 16 -37 34 0 13 4 12 22 -5 12 -13 19 -25 15 -29z m-10 -13
c123 -58 313 -197 295 -216 -4 -4 -1 -5 5 -1 7 4 18 2 25 -4 51 -42 66 -59 60
-66 -4 -4 -1 -4 6 0 14 8 75 -31 67 -44 -3 -5 0 -12 6 -16 8 -4 9 -3 5 4 -10
17 -2 15 41 -10 45 -26 34 -12 -22 27 -39 26 -39 27 -10 20 33 -7 75 -41 75
-61 0 -7 26 -29 58 -48 153 -93 312 -131 388 -94 21 10 46 26 57 35 13 12 9 1
-12 -32 -17 -27 -35 -60 -41 -73 -5 -13 -14 -20 -20 -17 -5 3 -10 -1 -10 -9 0
-25 -34 -36 -109 -36 l-69 0 -8 -32 c-6 -29 -8 -30 -15 -13 -4 11 -8 27 -8 35
-1 13 0 13 9 0 8 -13 10 -12 10 3 0 10 -8 17 -20 17 -30 0 -221 102 -289 154
-62 48 -99 65 -46 21 17 -13 25 -24 19 -25 -12 0 -54 42 -51 52 1 3 -10 16
-26 28 -15 12 -25 26 -21 31 3 5 0 8 -8 7 -7 -2 -12 3 -10 10 1 8 -2 11 -7 8
-5 -4 -12 -2 -15 3 -11 17 -98 61 -109 54 -6 -3 -7 -1 -3 5 12 19 -194 144
-301 182 -89 32 -185 26 -239 -15 -37 -28 -38 -28 -21 -5 9 14 22 36 27 48 6
13 19 26 30 29 11 3 17 9 14 14 -3 5 -10 6 -16 3 -5 -4 -2 5 7 20 10 14 24 26
31 26 8 0 14 4 14 9 0 13 83 18 144 9 26 -4 77 -21 113 -37z m110 25 c-1 -5 9
-13 23 -17 14 -4 18 -8 10 -8 -11 -1 -10 -4 4 -13 14 -8 24 -8 38 1 39 24 57
-21 22 -56 -22 -22 -24 0 -2 24 12 13 18 23 14 23 -9 0 -59 -32 -69 -45 -5 -5
-5 1 -2 14 7 22 5 23 -21 18 -44 -8 -56 1 -37 29 15 23 15 24 -11 24 -15 0
-25 4 -21 10 8 12 54 9 52 -4z m545 -35 c3 -31 1 -37 -9 -29 -15 12 -18 68 -4
68 5 0 11 -18 13 -39z m-299 -15 c16 -3 25 -1 22 5 -4 5 -11 7 -16 4 -5 -4 -9
-1 -9 4 0 6 11 10 24 9 14 -1 22 -6 20 -10 -3 -4 0 -8 5 -8 6 0 11 5 11 10 0
6 5 10 11 10 6 0 8 -9 4 -22 -7 -23 -7 -23 8 -3 13 16 15 17 13 4 -1 -10 -8
-25 -16 -34 -13 -16 -15 -16 -27 1 -7 10 -13 14 -13 8 0 -14 14 -31 29 -36 12
-3 11 -7 -3 -19 -9 -7 -24 -20 -32 -28 -13 -12 -15 -12 -14 0 4 26 0 39 -12
39 -6 0 -9 -3 -5 -6 3 -3 0 -12 -6 -19 -9 -10 -15 -8 -29 8 -22 24 -23 41 -4
34 15 -6 33 29 22 40 -3 4 -6 -1 -6 -10 0 -21 -17 -22 -36 -3 -19 19 -18 30 2
22 12 -5 15 -2 10 10 -5 13 -3 14 7 6 7 -6 25 -13 40 -16z m-75 -28 c17 -28
12 -45 -8 -33 -9 6 -9 9 0 15 8 5 3 10 -14 14 -17 4 -23 11 -19 22 7 20 21 14
41 -18z m216 7 c3 -8 1 -15 -5 -15 -6 0 -1 -9 12 -20 l24 -19 -25 -1 c-20 0
-22 2 -10 10 21 14 -5 13 -31 0 -15 -9 -19 -7 -19 6 0 18 27 54 40 54 5 0 10
-7 14 -15z m136 -74 c0 -6 -4 -11 -10 -11 -12 0 -31 35 -23 43 7 8 33 -18 33
-32z m-792 23 c27 -8 29 -37 4 -62 -10 -10 -26 -29 -34 -41 l-17 -23 -36 22
c-32 20 -75 72 -75 92 0 14 116 23 158 12z m469 -25 c16 -14 37 -51 48 -87 6
-21 5 -22 -12 -13 -10 6 -36 26 -58 46 -22 19 -44 35 -50 35 -5 0 -3 5 5 10
12 8 11 10 -6 10 -12 0 -27 6 -33 14 -9 11 -2 12 40 5 28 -4 57 -14 66 -20z
m258 21 c-3 -5 2 -10 12 -11 14 0 14 -2 -4 -9 -31 -12 -29 -34 5 -59 24 -18
25 -19 5 -14 -17 4 -23 1 -23 -10 0 -28 -48 -74 -86 -81 -38 -8 -90 16 -79 34
3 6 -1 7 -9 4 -19 -7 -20 5 -4 58 15 51 50 78 102 79 22 0 50 4 61 9 27 11 27
11 20 0z m-635 -55 c0 -20 -21 -30 -31 -14 -5 8 -9 9 -9 3 0 -6 9 -19 20 -29
27 -24 25 -33 -5 -28 -31 7 -41 37 -21 68 17 25 46 25 46 0z m685 -16 c4 -15
3 -34 -1 -40 -5 -8 -2 -10 8 -6 12 4 15 -1 14 -21 -1 -15 -5 -33 -10 -41 -6
-10 -5 -12 2 -7 24 15 11 -34 -13 -50 -30 -19 -65 -10 -65 17 0 11 5 17 10 14
6 -3 10 -1 10 4 0 6 -7 11 -15 11 -21 0 -19 13 5 35 16 15 22 16 35 5 20 -16
32 -5 16 14 -7 8 -19 12 -27 9 -8 -3 -14 -1 -14 5 0 5 9 12 20 15 26 7 26 27
0 34 -11 3 -17 9 -14 14 3 5 11 6 17 2 7 -4 6 1 -2 10 -12 15 -12 17 2 11 9
-3 19 -19 22 -35z m-658 -49 l-14 -45 1 52 c1 28 4 49 9 46 4 -2 8 4 8 14 2
15 2 15 6 -2 2 -11 -3 -40 -10 -65z m-263 44 c9 -3 16 -12 16 -20 0 -8 6 -11
17 -7 11 4 14 3 9 -5 -5 -8 0 -12 13 -12 31 0 34 -17 10 -57 -12 -19 -17 -34
-10 -32 7 3 12 8 12 12 -2 8 45 57 54 57 4 0 -8 -20 -26 -44 -22 -31 -36 -43
-48 -39 -32 12 -42 26 -36 52 4 19 3 22 -4 11 -8 -12 -12 -10 -20 10 -5 14
-10 19 -10 11 -1 -21 -11 -7 -17 23 -2 15 0 26 6 26 6 0 8 5 5 10 -7 11 6 13
29 4z m345 -34 c0 -10 -2 -11 -6 -2 -14 35 -18 -5 -17 -175 1 -135 4 -187 13
-185 14 3 14 0 -4 -34 -19 -37 -19 -65 0 -111 18 -41 18 -46 6 -38 -5 3 -11
-5 -13 -17 -6 -44 -202 -83 -272 -54 -21 9 -43 13 -49 9 -6 -3 -7 -1 -3 6 4 6
2 18 -4 26 -16 19 -4 136 22 224 11 36 20 71 21 78 0 7 5 9 10 6 6 -4 8 0 4
10 -3 9 -1 17 5 19 6 2 13 15 15 28 6 41 20 49 58 37 l35 -10 2 -81 c0 -45 1
-87 0 -95 0 -8 33 -54 74 -103 55 -67 74 -84 74 -68 0 21 -52 94 -95 133 -20
18 -20 18 5 12 80 -19 90 -19 90 5 0 21 -3 22 -50 17 -56 -7 -59 -2 -40 63 13
47 3 101 -21 107 -23 6 -25 29 -3 37 8 3 13 2 10 -3 -3 -5 5 -16 19 -25 14 -9
25 -13 25 -9 1 5 7 -3 14 -17 8 -14 12 -28 10 -32 -2 -4 5 -6 16 -5 14 1 20 8
20 24 0 24 -15 32 -23 11 -2 -7 -7 3 -11 23 -9 48 -37 74 -65 60 -13 -7 -22
-8 -26 -1 -11 18 -25 10 -25 -15 0 -29 2 -28 -38 -14 -18 6 -29 15 -26 20 3 5
-2 6 -12 2 -11 -4 -6 10 17 44 28 43 38 50 59 47 19 -3 21 -2 10 5 -15 10 -23
64 -8 55 4 -3 8 -14 8 -25 0 -16 4 -19 21 -14 14 5 19 4 15 -4 -4 -6 -2 -9 7
-5 9 3 17 -8 25 -34 11 -36 72 -108 72 -84 0 6 -8 15 -17 21 -19 10 -20 68 -1
133 9 32 13 35 29 25 11 -7 19 -19 18 -27z m44 -215 c10 -21 25 -48 35 -59 16
-20 16 -20 0 -7 -16 12 -18 11 -18 -2 0 -17 32 -39 48 -35 14 4 91 -45 92 -58
0 -6 7 -17 15 -24 8 -7 15 -21 15 -33 0 -11 16 -34 35 -53 32 -30 34 -34 19
-49 -9 -9 -23 -14 -31 -11 -8 3 -19 6 -24 6 -5 0 -2 11 6 24 15 23 15 25 -11
45 -37 29 -55 27 -52 -6 3 -25 0 -28 -22 -24 -24 3 -25 3 -7 -17 17 -19 17
-20 0 -24 -10 -3 -44 -6 -75 -7 l-58 -2 0 65 c0 36 -4 68 -10 71 -5 3 -10 12
-9 18 0 9 2 8 6 -1 2 -6 22 -15 44 -18 41 -7 59 -21 41 -33 -7 -4 1 -12 19
-18 27 -10 29 -10 18 3 -18 21 -23 77 -7 71 7 -2 13 -15 13 -29 -1 -22 3 -25
19 -18 32 11 42 35 27 66 -10 22 -14 25 -22 13 -7 -12 -9 -12 -9 0 0 8 -3 11
-6 8 -4 -4 -1 -13 6 -22 7 -9 10 -18 6 -22 -3 -3 -6 -2 -6 3 0 5 -14 11 -30
12 -21 2 -33 -3 -37 -15 -6 -15 -8 -14 -13 7 -5 19 -12 24 -28 22 -21 -3 -22
0 -22 73 0 46 4 74 10 70 5 -3 6 -13 3 -23 -5 -13 -3 -15 7 -5 11 10 10 17 -4
37 -9 14 -16 37 -16 51 0 15 -4 24 -8 21 -5 -3 -9 1 -9 9 0 8 4 15 9 15 4 0 8
15 7 33 -1 30 -1 31 -9 7 -7 -23 -8 -23 -9 -3 -1 12 4 25 9 28 6 3 11 23 12
43 1 20 4 -8 7 -63 4 -63 13 -115 24 -140z m787 204 c40 -17 48 -24 40 -38
-16 -29 -57 -71 -69 -71 -7 0 -11 -26 -11 -75 0 -41 -4 -75 -9 -75 -18 0 -23
42 -16 117 5 58 10 73 21 69 11 -4 14 4 14 34 0 22 -4 40 -9 40 -5 0 -8 -13
-7 -30 1 -16 -1 -30 -6 -30 -4 0 -8 18 -8 40 0 22 3 40 6 40 3 0 27 -10 54
-21z m-176 -22 c10 -37 7 -45 -14 -40 -15 4 -20 14 -20 39 0 24 4 32 14 28 8
-3 17 -15 20 -27z m104 -57 c0 -25 -6 -51 -12 -59 -15 -19 -25 63 -12 102 12
40 26 15 24 -43z m-658 49 c0 -5 7 -9 15 -9 8 0 15 -7 15 -16 0 -8 -4 -12 -10
-9 -5 3 -10 1 -10 -4 0 -6 5 -11 10 -11 15 0 12 -26 -4 -39 -9 -8 -16 -8 -20
-2 -4 5 -15 8 -26 6 -10 -2 -25 4 -32 13 -7 9 -8 13 -2 9 7 -4 15 0 18 9 3 8
2 12 -4 9 -6 -3 -10 -1 -10 4 0 6 5 11 11 11 5 0 7 5 4 10 -4 6 -11 8 -16 5
-5 -3 -7 0 -4 7 6 14 65 20 65 7z m623 -129 c10 -51 16 -94 13 -97 -12 -12
-25 11 -35 60 -29 140 -30 147 -12 137 11 -6 23 -38 34 -100z m-66 82 c10 -6
9 -13 -3 -30 -21 -30 -34 -27 -34 8 0 30 13 37 37 22z m-421 -43 c22 -17 44
-34 50 -37 6 -4 14 -20 17 -37 3 -16 4 -25 1 -19 -3 7 -16 0 -34 -17 -22 -23
-38 -29 -69 -29 -26 0 -41 5 -42 13 0 9 -2 9 -6 -1 -10 -24 -40 -33 -54 -15
-12 15 -12 16 7 11 14 -4 25 1 33 14 7 12 8 17 2 13 -6 -3 -11 -1 -11 5 0 15
-34 8 -40 -8 -4 -9 -10 -5 -18 12 -11 25 -11 26 16 20 26 -6 26 -6 7 9 -11 8
-23 13 -27 11 -4 -3 -5 3 -1 12 5 14 3 16 -11 11 -12 -5 -16 -3 -13 5 3 11 27
14 60 9 4 0 7 -8 7 -17 0 -14 -3 -14 -15 -4 -9 8 -15 8 -15 2 0 -12 38 -27 59
-23 9 2 12 -3 7 -15 -4 -10 -4 -15 0 -11 4 4 13 2 20 -4 11 -9 15 -7 20 5 8
22 3 26 -35 29 -35 2 -37 7 -16 47 25 48 49 51 101 9z m-523 -27 c-6 -15 -5
-16 12 -2 18 14 18 14 3 -10 -9 -14 -14 -33 -13 -42 2 -11 -2 -15 -11 -11 -16
6 -29 -21 -33 -70 -1 -5 -6 -5 -12 -1 -8 5 -8 1 0 -14 8 -15 8 -29 0 -49 -20
-53 -38 -206 -26 -228 9 -18 9 -19 -6 -6 -10 7 -17 11 -17 9 0 -3 21 -22 47
-42 26 -20 39 -36 30 -36 -8 0 -30 12 -49 26 l-33 26 35 -33 c19 -18 34 -36
33 -39 -2 -3 6 -5 17 -4 72 2 90 5 90 14 0 5 -7 7 -16 3 -18 -7 -81 25 -89 46
-4 11 -3 11 9 2 30 -25 108 -24 224 4 62 15 119 24 128 21 8 -3 12 -2 9 4 -3
6 -17 10 -31 10 -13 0 -24 5 -24 10 0 9 137 13 535 15 44 0 115 2 159 3 l79 2
-6 40 c-3 22 -1 40 3 40 5 0 10 8 13 18 2 9 4 -13 4 -50 0 -57 -3 -69 -19 -74
-10 -3 -16 -10 -13 -15 12 -19 16 -95 6 -119 -9 -23 -10 -22 -9 15 0 36 -9
106 -16 112 -8 8 -187 10 -192 1 -4 -6 15 -9 55 -6 l61 3 0 -63 c0 -94 -41
-169 -87 -160 -29 5 -54 91 -49 166 l4 62 -59 0 c-56 0 -59 -1 -59 -25 0 -18
5 -25 19 -25 11 0 22 6 24 13 3 7 6 5 6 -5 1 -10 6 -18 12 -18 6 0 9 -6 6 -14
-4 -10 0 -12 14 -9 16 4 19 0 19 -26 0 -17 7 -48 15 -68 8 -20 13 -38 11 -40
-11 -11 -106 100 -132 155 -27 57 -31 62 -61 62 -18 0 -33 -4 -33 -10 0 -5 8
-10 18 -10 10 0 25 -11 32 -25 7 -13 17 -22 22 -19 4 3 8 3 8 0 0 -2 3 -13 7
-23 3 -10 -11 0 -33 22 -21 21 -41 38 -44 37 -3 -1 -13 5 -22 13 -14 12 -37
13 -115 8 -56 -3 -106 -12 -118 -19 -23 -16 -39 -18 -30 -4 3 5 -7 5 -25 -1
-16 -6 -30 -15 -30 -20 0 -6 8 -5 19 1 11 5 23 10 28 10 4 -1 -5 -8 -20 -16
-15 -8 -25 -19 -22 -24 3 -4 -4 -6 -15 -3 -14 4 -20 1 -18 -7 2 -7 -4 -15 -12
-17 -13 -4 -13 -3 0 7 12 10 11 11 -8 7 -14 -3 -20 -1 -16 5 4 6 1 8 -7 6 -8
-3 -13 -10 -12 -16 1 -5 -7 -8 -20 -4 -12 3 -19 2 -16 -2 4 -4 18 -8 31 -10
13 -1 29 -6 36 -10 6 -4 22 -1 34 6 13 7 29 11 37 9 7 -1 10 2 6 8 -3 7 2 11
15 11 11 0 43 11 71 25 27 14 54 23 59 20 6 -4 10 -2 10 4 0 6 7 8 16 4 13 -5
10 -9 -12 -18 -16 -7 -33 -10 -38 -7 -5 3 -6 0 -2 -6 7 -12 -42 -38 -52 -28
-2 3 -21 -3 -42 -14 -21 -11 -40 -16 -44 -13 -3 4 -6 0 -6 -7 0 -7 -3 -11 -6
-7 -3 3 -35 -5 -70 -17 -73 -27 -85 -24 -21 4 23 10 36 19 29 19 -7 1 -31 -8
-52 -19 -29 -15 -50 -19 -78 -14 -25 4 -51 0 -77 -10 -21 -9 -47 -14 -58 -10
-14 4 -17 3 -12 -6 5 -8 19 -10 39 -5 17 3 41 7 53 8 11 1 19 5 16 10 -2 4 8
7 22 7 16 0 24 -4 20 -10 -4 -7 3 -8 22 -4 15 4 25 4 21 0 -6 -7 -26 -11 -120
-22 -47 -6 -118 10 -118 26 0 5 7 7 15 4 28 -11 15 11 -14 24 -27 12 -47 39
-37 49 2 3 15 -1 28 -9 12 -7 28 -13 33 -14 6 0 29 -4 52 -8 25 -5 49 -3 60 3
14 8 8 10 -30 11 -33 0 -46 4 -41 11 4 8 -1 9 -16 4 -12 -4 -21 -3 -18 1 2 5
-11 23 -29 41 -40 38 -43 27 -6 -18 l27 -32 -24 14 c-14 7 -28 13 -32 14 -3 0
-10 4 -15 9 -4 5 -3 6 3 3 9 -5 9 4 1 35 -9 35 -11 38 -18 21 -4 -12 -2 -41 6
-67 16 -53 4 -61 -19 -14 -19 38 -20 41 -3 32 10 -6 10 -4 0 7 -7 7 -13 27
-12 43 1 30 1 30 9 6 7 -23 8 -23 9 -3 1 12 -3 25 -9 28 -5 3 -10 11 -10 16 0
6 4 8 9 5 5 -4 7 3 4 14 -3 11 -1 20 5 20 5 0 12 10 15 23 2 12 12 39 21 60 9
20 13 37 8 37 -17 0 -70 -130 -78 -190 -2 -19 -9 -51 -15 -72 -6 -24 -6 -44 0
-55 5 -10 12 -29 15 -43 10 -44 18 -49 99 -51 82 -2 96 -10 46 -28 -39 -13
-64 -14 -87 -2 -9 5 -25 12 -35 15 -9 3 -22 17 -27 31 -5 14 -12 25 -15 25 -4
0 -3 -4 0 -10 3 -5 2 -10 -3 -10 -13 0 -22 25 -22 59 0 15 -5 32 -12 39 -18
18 -10 85 16 145 13 29 28 65 35 81 6 16 14 27 16 24 3 -2 -11 -51 -30 -108
-19 -57 -35 -113 -34 -124 0 -13 5 -7 10 14 5 19 13 42 18 50 4 8 16 42 25 75
19 62 65 161 98 208 17 24 13 39 -6 20 -9 -9 -36 -13 -36 -5 0 12 49 67 50 56
0 -6 -7 -17 -15 -24 -8 -7 -15 -18 -15 -24 0 -6 7 -3 14 6 7 10 17 14 21 10 5
-4 5 -1 1 6 -4 7 -1 15 8 18 9 3 14 10 11 14 -3 5 0 12 6 16 7 4 9 3 5 -4 -3
-6 -2 -13 4 -17 5 -3 10 -1 10 6 0 18 71 110 80 104 5 -3 6 -13 3 -23z m883 4
c2 -20 -2 -23 -29 -20 -36 5 -50 14 -20 14 11 0 26 7 33 15 16 19 15 19 16 -9z
m44 -7 c-11 -7 -9 -8 10 -7 19 2 25 -2 26 -19 1 -24 -13 -40 -33 -37 -7 1 -20
2 -29 3 -12 1 -15 7 -10 29 7 27 35 56 45 46 3 -3 -1 -9 -9 -15z m268 -30 c24
-17 49 -44 57 -60 15 -28 15 -28 -22 -39 -21 -6 -60 -10 -88 -8 -48 3 -50 5
-53 33 -2 21 6 42 25 67 15 21 30 37 34 38 3 0 24 -14 47 -31z m-533 -90 c4
-11 13 -15 25 -12 16 4 19 2 14 -11 -4 -10 -13 -15 -20 -12 -20 8 -17 -1 7
-27 12 -12 19 -17 16 -12 -3 6 0 21 7 34 l13 24 7 -28 c8 -32 7 -33 -22 -38
-27 -4 -41 -17 -19 -17 10 0 17 -5 17 -11 0 -5 -5 -7 -12 -3 -7 5 -9 2 -5 -8
6 -18 -10 -38 -32 -38 -12 0 -12 2 1 18 17 20 17 48 0 45 -7 -2 -12 1 -12 6 0
5 -7 12 -16 15 -8 3 -13 2 -10 -3 8 -13 -18 -21 -35 -10 -12 7 -12 9 0 9 8 0
11 3 8 7 -4 3 -15 -1 -25 -10 -10 -10 -22 -14 -25 -10 -4 3 -7 2 -7 -4 0 -13
94 -28 110 -18 5 3 10 2 10 -4 0 -6 -14 -18 -30 -26 -26 -14 -33 -14 -45 -2
-8 8 -11 17 -8 21 4 3 -3 6 -15 6 -11 0 -28 3 -37 6 -14 6 -13 8 5 21 25 17
27 35 3 26 -16 -6 -16 -4 1 15 22 26 36 28 36 7 0 -8 5 -15 10 -15 6 0 10 4
10 9 0 5 6 11 13 14 6 2 4 3 -5 2 -10 -2 -18 1 -18 6 0 5 -7 9 -15 9 -29 0
-12 34 24 48 29 10 68 -5 76 -29z m-832 -32 c4 3 7 -1 7 -11 0 -9 -7 -19 -15
-22 -8 -4 -13 -10 -10 -14 3 -5 -4 -24 -16 -42 -12 -18 -18 -24 -15 -13 13 41
-33 -29 -60 -92 -14 -35 -30 -61 -34 -58 -12 7 -16 -42 -9 -115 3 -36 6 -59 7
-51 1 8 5 12 8 9 3 -4 0 -16 -6 -28 -9 -17 -9 -21 0 -15 7 4 13 -1 17 -13 3
-11 11 -18 17 -16 7 3 19 -3 27 -12 13 -16 12 -16 -7 -6 -12 6 -25 8 -29 4 -3
-4 -12 0 -18 9 -7 8 -20 18 -29 22 -12 4 -18 18 -19 39 -1 21 -3 26 -6 14 -4
-17 -8 -14 -19 13 -8 18 -12 36 -9 40 2 4 0 21 -5 37 -8 27 -8 26 -10 -16 0
-25 -7 -58 -15 -75 l-13 -30 -1 47 c-1 57 35 162 52 151 7 -4 6 1 -2 10 -12
15 -9 24 20 73 19 30 50 72 69 92 19 20 34 39 35 42 0 3 9 18 19 33 l19 28 22
-21 c12 -11 25 -17 28 -13z m702 15 c5 -15 -27 -50 -42 -45 -5 2 -8 15 -5 28
3 20 1 24 -12 19 -9 -3 -16 -1 -16 4 0 15 69 10 75 -6z m315 -62 c18 -10 16
-13 -21 -47 -46 -42 -63 -47 -80 -27 -6 8 -16 14 -21 14 -5 0 2 -11 16 -23
l25 -24 -32 -1 c-57 -2 -61 10 -19 55 60 62 91 75 132 53z m74 -59 c16 -13 18
-13 11 -1 -8 13 -6 13 8 1 9 -7 14 -17 11 -22 -3 -5 -2 -8 3 -7 5 2 20 -8 33
-21 14 -13 18 -20 10 -16 -8 5 -4 -4 9 -18 49 -54 -1 -25 -64 37 -76 76 -89
103 -21 47z m-16 -57 c10 -34 10 -36 -11 -30 -12 3 -28 6 -35 6 -9 0 -9 7 3
30 20 39 29 38 43 -6z m-173 -15 c61 -11 144 -25 185 -32 l75 -12 -80 -5 c-44
-3 -84 -2 -90 1 -18 11 -143 31 -154 25 -5 -4 -12 -2 -15 3 -3 4 -23 11 -44
15 -22 3 -46 13 -53 23 -16 19 -20 19 176 -18z m225 -16 c0 -7 -7 -13 -15 -13
-8 0 -15 6 -15 14 0 8 -3 23 -7 33 -6 17 -5 17 15 -1 12 -11 22 -25 22 -33z
m-233 -30 c3 -8 -5 -11 -24 -9 -36 5 -35 4 -28 17 9 13 47 8 52 -8z m-1153
-83 c-12 -35 -14 -66 -9 -140 6 -73 4 -92 -5 -84 -18 17 -31 91 -24 132 8 42
44 145 50 140 2 -2 -4 -24 -12 -48z m800 -11 c-3 -6 -11 -8 -18 -6 -6 3 -20
-1 -31 -9 -10 -8 -24 -14 -29 -14 -6 0 7 11 28 25 38 23 63 25 50 4z m-589
-60 c2 -12 9 -27 16 -35 13 -15 34 -20 25 -5 -4 5 3 7 14 4 11 -3 23 -10 27
-16 4 -6 -2 -8 -15 -5 -15 4 -19 2 -15 -8 3 -8 10 -14 17 -15 6 -1 -5 -5 -24
-9 -38 -9 -63 10 -56 42 2 10 0 20 -4 23 -4 3 -8 22 -8 42 0 29 2 33 10 20 5
-10 11 -27 13 -38z m-153 -84 c-3 -5 -1 -7 3 -2 13 11 45 -23 44 -47 0 -18 -3
-16 -15 9 l-15 30 6 -27 c3 -16 1 -28 -5 -28 -5 0 -11 12 -11 28 -1 18 -3 21
-6 9 -5 -18 -6 -18 -24 -1 -26 23 -24 3 2 -25 26 -28 43 -81 25 -81 -6 0 -17
5 -24 12 -6 6 -15 9 -18 5 -4 -4 6 -12 23 -19 16 -7 44 -30 62 -50 31 -36 32
-38 11 -38 -34 0 -78 31 -95 66 -15 32 -15 149 0 208 l8 29 18 -34 c9 -19 15
-38 11 -44z m1318 1 c-11 -35 -36 -63 -46 -53 -3 3 6 21 20 40 14 19 26 42 27
53 0 10 3 13 6 7 2 -7 0 -28 -7 -47z m-133 -36 c6 0 17 -8 24 -17 12 -15 12
-16 -4 -10 -10 4 -24 7 -30 7 -20 0 -79 58 -72 70 5 8 18 1 39 -19 18 -17 37
-31 43 -31z m-1062 -140 c17 -11 44 -20 60 -21 l30 -1 -30 -14 c-25 -13 -26
-14 -5 -9 54 13 194 34 198 31 2 -3 -29 -14 -69 -26 -115 -34 -229 -16 -260
41 -8 16 -6 19 18 19 15 0 42 -9 58 -20z m1352 -122 c-3 -51 -11 -110 -17
-131 -13 -45 -48 -70 -83 -62 -35 9 -95 62 -136 121 l-35 49 46 -42 c48 -44
75 -55 118 -49 14 2 30 4 36 5 23 2 44 52 55 126 6 41 14 75 17 75 3 0 2 -42
-1 -92z"/>
<path d="M2130 2404 c-19 -7 -45 -13 -58 -13 -13 -1 -20 -5 -17 -11 3 -6 17
-7 31 -4 14 4 24 2 24 -5 0 -14 -57 -15 -65 -1 -3 6 -14 10 -23 9 -14 0 -13
-2 3 -8 16 -6 7 -12 -45 -30 -73 -25 -123 -50 -100 -51 9 0 49 14 89 31 62 26
84 30 132 27 32 -2 56 -1 53 3 -2 4 8 10 23 12 16 2 9 3 -14 1 -33 -3 -43 0
-43 11 0 11 12 15 49 15 27 0 57 -3 65 -6 15 -6 15 -8 -1 -19 -15 -11 -11 -12
27 -5 25 5 52 10 60 11 16 2 -44 14 -118 25 -29 5 -39 10 -30 15 18 12 -1 9
-42 -7z"/>
<path d="M2022 2282 c-58 -19 -47 -27 14 -9 26 7 43 16 38 18 -5 3 -28 -1 -52
-9z"/>
<path d="M2425 2185 c4 -11 7 -27 8 -35 0 -8 4 -20 9 -27 7 -8 4 -23 -6 -44
-9 -18 -16 -37 -16 -43 1 -6 9 7 20 29 20 43 17 86 -8 120 -14 20 -14 20 -7 0z"/>
<path d="M2441 2017 c-1 -19 -21 -57 -36 -70 -6 -5 -3 -7 6 -4 9 3 21 1 27 -5
14 -14 37 29 24 45 -6 7 -12 21 -15 32 -4 16 -5 17 -6 2z"/>
<path d="M1633 1690 c-16 -6 -21 -14 -16 -26 5 -14 3 -14 -16 -3 -11 8 -21 18
-22 24 0 5 -5 -1 -10 -15 -8 -20 -12 -22 -20 -10 -9 13 -10 13 -6 -1 3 -9 0
-22 -6 -29 -9 -10 -9 -11 2 -5 8 4 17 2 22 -6 4 -7 11 -10 16 -6 4 5 2 11 -4
15 -22 14 1 30 32 23 3 0 1 -10 -5 -21 -7 -14 -7 -20 0 -20 5 0 10 7 10 15 0
8 8 19 19 24 10 6 21 20 24 31 3 11 4 20 4 19 -1 0 -12 -4 -24 -9z"/>
<path d="M1040 1570 c0 -5 -9 -10 -21 -10 -18 0 -19 -2 -5 -15 22 -22 36 -18
36 10 0 14 -2 25 -5 25 -3 0 -5 -4 -5 -10z"/>
<path d="M918 1412 c-14 -20 -28 -48 -32 -62 -4 -16 1 -11 14 13 11 21 25 35
30 32 6 -4 7 1 3 11 -4 12 -3 15 5 10 8 -5 10 -1 5 10 -5 13 -3 15 7 9 9 -5
11 -4 6 3 -10 17 -10 16 -38 -26z"/>
<path d="M901 1325 c-57 -152 4 -250 154 -243 l67 3 -23 20 c-18 15 -20 15
-10 3 12 -17 9 -18 -38 -18 -137 0 -191 87 -141 230 25 73 18 77 -9 5z"/>
<path d="M835 1150 c4 -33 2 -39 -4 -25 -8 16 -10 17 -10 3 -2 -40 87 -110
136 -107 12 1 10 3 -7 9 -19 6 -9 9 40 10 36 1 76 5 90 10 14 4 -13 5 -61 2
-66 -4 -92 -1 -116 12 -38 19 -42 25 -59 85 l-14 46 5 -45z"/>
<path d="M826 1416 c-49 -85 -48 -84 -40 -57 4 16 3 21 -5 17 -6 -4 -11 -15
-11 -25 0 -9 -7 -26 -15 -37 -8 -10 -14 -23 -15 -29 0 -5 5 -3 10 5 13 19 13
5 1 -18 -24 -43 -43 -125 -37 -160 5 -27 4 -33 -3 -22 -10 13 -11 13 -10 0 1
-8 5 -26 9 -40 l8 -25 1 25 c1 22 4 20 20 -15 10 -22 25 -46 34 -54 24 -19 21
2 -3 24 -27 24 -43 86 -31 116 8 21 10 18 11 -21 0 -25 4 -51 9 -58 4 -7 6 14
4 50 -2 35 1 77 7 93 9 28 10 29 6 3 -1 -15 1 -33 5 -40 8 -12 15 40 11 85 -1
12 2 16 11 11 7 -5 6 0 -3 11 -14 17 -13 18 3 12 10 -4 16 -3 12 2 -3 5 -1 12
5 16 15 9 12 22 -4 22 -8 0 -12 -6 -8 -15 3 -10 1 -13 -5 -9 -7 5 -20 -17 -33
-58 -19 -59 -40 -78 -40 -39 0 8 5 12 10 9 6 -3 10 3 10 14 0 44 101 228 119
216 4 -2 7 4 7 14 0 31 -26 19 -50 -23z"/>
<path d="M1005 984 l-40 -14 45 5 c25 4 49 10 55 16 13 13 -11 10 -60 -7z"/>
<path d="M1791 940 c0 -14 -10 -43 -20 -63 -12 -24 -14 -34 -6 -27 18 15 38
75 32 97 -3 12 -5 10 -6 -7z"/>
<path d="M957 924 c-74 -20 -77 -24 -12 -18 81 7 102 14 84 25 -8 5 -16 8 -19
8 -3 -1 -27 -7 -53 -15z"/>
<path d="M674 1322 c4 -7 2 -13 -3 -13 -6 -1 -15 -3 -21 -4 -5 -1 -13 -3 -16
-4 -4 0 -1 -7 6 -15 9 -12 6 -24 -15 -60 -15 -25 -30 -46 -34 -46 -4 0 -13
-11 -19 -25 -15 -32 -15 -45 -1 -25 8 11 9 6 5 -20 -5 -27 -2 -23 14 18 27 74
59 124 76 118 7 -3 16 0 20 6 4 7 3 8 -5 4 -8 -5 -10 0 -7 18 3 14 7 30 10 35
4 5 1 13 -5 17 -8 4 -9 3 -5 -4z"/>
<path d="M594 1242 c3 -6 -3 -16 -14 -22 -11 -6 -18 -15 -15 -20 3 -4 1 -10
-3 -12 -12 -4 -65 -89 -59 -94 2 -2 18 17 35 43 17 27 40 60 52 75 15 19 17
29 9 34 -7 4 -9 3 -5 -4z"/>
<path d="M516 1049 c-10 -33 -15 -63 -12 -66 6 -6 8 -1 26 70 19 71 6 68 -14
-4z"/>
<path d="M535 970 c-3 -16 -2 -37 3 -47 8 -13 10 -6 10 30 -1 26 -2 47 -4 47
-1 0 -5 -13 -9 -30z"/>
<path d="M1085 2300 c-3 -5 -4 -14 0 -19 3 -5 1 -12 -5 -16 -5 -3 -10 -14 -10
-23 1 -14 2 -14 12 3 6 11 18 26 27 34 15 12 14 13 -3 7 -14 -5 -17 -2 -12 9
6 17 0 20 -9 5z"/>
<path d="M2005 2070 c27 -7 25 -8 -20 -10 -95 -4 -112 -16 -23 -16 99 1 134
-16 155 -75 11 -31 12 -32 13 -9 2 19 5 14 15 -20 10 -33 13 -38 14 -20 1 14
-9 46 -21 70 -25 49 -90 91 -138 89 -24 -1 -23 -2 5 -9z"/>
<path d="M1356 2015 c-7 -18 10 -20 18 -2 3 6 3 1 0 -12 -5 -17 -3 -21 6 -16
9 5 11 4 6 -4 -6 -9 -11 -9 -24 1 -11 9 -13 9 -9 1 5 -7 -1 -16 -12 -22 -28
-15 -34 -14 -27 7 5 14 4 14 -9 -2 -30 -39 -22 -42 49 -21 61 19 95 18 41 -1
l-40 -14 36 4 c20 2 41 6 46 9 5 3 15 2 22 -2 16 -10 -71 -25 -97 -17 -9 3
-42 -1 -72 -8 l-55 -14 95 -1 c52 0 102 3 110 9 8 5 19 5 25 1 16 -13 65 -19
71 -10 7 12 -85 69 -112 69 -18 0 -21 4 -17 21 9 33 -39 55 -51 24z"/>
<path d="M1666 2015 c-27 -8 -52 -18 -55 -23 -3 -5 -17 -12 -31 -16 -17 -5
-20 -4 -12 2 8 5 14 13 15 18 1 5 6 8 10 6 5 -1 6 2 2 8 -3 5 -15 10 -27 10
-15 0 -18 -4 -14 -16 4 -10 -1 -25 -11 -36 -17 -19 -17 -20 2 -34 32 -24 69
-14 73 19 2 15 7 25 11 23 7 -5 55 4 100 19 24 7 24 7 17 -43 -6 -45 -4 -50
15 -55 23 -6 23 0 3 79 -7 27 -3 25 59 -30 40 -35 73 -56 84 -54 13 2 -3 21
-61 71 -86 73 -95 75 -180 52z"/>
<path d="M1917 2010 c118 -17 156 -52 154 -145 0 -45 -8 -75 -35 -131 -19 -41
-31 -76 -26 -79 9 -6 58 61 78 108 22 52 11 42 -19 -17 -39 -74 -48 -68 -13 9
19 40 27 76 28 114 1 98 -48 141 -164 147 l-65 3 62 -9z"/>
<path d="M2197 1908 c-14 -47 -21 -58 -28 -47 -8 10 -9 8 -4 -10 5 -16 4 -21
-4 -17 -7 5 -8 1 -4 -10 4 -12 3 -15 -6 -10 -7 5 -10 21 -6 44 l5 37 -11 -34
c-7 -24 -7 -37 0 -44 18 -18 12 -30 -6 -16 -15 11 -14 10 1 -9 19 -21 32 -30
22 -14 -7 11 32 74 42 68 4 -2 7 7 7 22 -1 15 3 39 8 54 5 15 7 32 5 38 -1 5
-11 -18 -21 -52z"/>
<path d="M2119 1890 c-4 -25 -10 -54 -13 -65 -3 -11 1 -5 9 14 9 18 15 48 13
65 -3 27 -4 25 -9 -14z"/>
<path d="M1868 729 c-23 -54 -57 -68 -106 -43 -58 29 -60 28 -19 -10 21 -20
43 -36 50 -36 7 0 6 4 -3 10 -11 7 -8 10 16 10 35 0 59 22 75 69 16 46 7 47
-13 0z"/>
</g>
</svg>
